<svg width="222" height="156" viewBox="0 0 222 156" fill="none" xmlns="http://www.w3.org/2000/svg">
<ellipse cx="111.229" cy="76.5532" rx="110.38" ry="68.7754" fill="#5C29DC" fill-opacity="0.04"/>
<ellipse cx="111.229" cy="76.5528" rx="96.9011" ry="60.3771" fill="#5C29DC" fill-opacity="0.12"/>
<ellipse cx="111.229" cy="76.5536" rx="81.1155" ry="50.5414" fill="#5C29DC"/>
<g filter="url(#filter0_d_9353_47728)">
<path d="M115.064 133.343L197.696 86.6833C203.705 83.29 203.782 74.6614 197.833 71.1625L115.202 22.5597C112.384 20.9025 108.888 20.9116 106.079 22.5835L24.4252 71.1868C18.5302 74.6957 18.6063 83.2575 24.5626 86.6612L106.216 133.32C108.955 134.886 112.317 134.894 115.064 133.343Z" fill="#1F232C"/>
</g>
<g filter="url(#filter1_d_9353_47728)">
<path d="M115.064 124.382L197.696 77.7226C203.705 74.3293 203.782 65.7007 197.833 62.2018L115.202 13.599C112.384 11.9418 108.888 11.9509 106.079 13.6228L24.4252 62.2261C18.5302 65.735 18.6063 74.2968 24.5626 77.7005L106.216 124.36C108.955 125.925 112.317 125.934 115.064 124.382Z" fill="#1F232C"/>
</g>
<path d="M115.064 128.863L197.696 82.2033C203.705 78.81 203.782 70.1814 197.833 66.6825L115.202 18.0797C112.384 16.4225 108.888 16.4316 106.079 18.1035L24.4252 66.7068C18.5302 70.2157 18.6063 78.7776 24.5626 82.1812L106.216 128.84C108.955 130.406 112.317 130.414 115.064 128.863Z" fill="#1F232C"/>
<g filter="url(#filter2_d_9353_47728)">
<path d="M115.064 121.248L197.696 74.5886C203.705 71.1952 203.782 62.5667 197.833 59.0678L115.202 10.465C112.384 8.80775 108.888 8.81687 106.079 10.4888L24.4252 59.092C18.5302 62.601 18.6063 71.1628 24.5626 74.5665L106.216 121.225C108.955 122.791 112.317 122.8 115.064 121.248Z" fill="#11192B"/>
<path d="M114.975 10.8511C112.298 9.2767 108.976 9.28521 106.308 10.8735L24.6545 59.4771C19.0545 62.8104 19.1264 70.9436 24.7844 74.1773L106.438 120.836C109.04 122.324 112.234 122.332 114.844 120.858L197.476 74.1987C203.185 70.975 203.257 62.7776 197.606 59.4536L114.975 10.8511Z" stroke="url(#paint0_linear_9353_47728)" stroke-width="0.89575"/>
</g>
<g clip-path="url(#clip0_9353_47728)">
<mask id="mask0_9353_47728" style="mask-type:alpha" maskUnits="userSpaceOnUse" x="20" y="9" width="183" height="114">
<path d="M114.975 10.8513C112.298 9.27693 108.976 9.28545 106.308 10.8738L24.6545 59.4773C19.0545 62.8107 19.1263 70.9438 24.7844 74.1775L106.438 120.837C109.04 122.324 112.234 122.332 114.844 120.858L197.476 74.199C203.185 70.9753 203.257 62.7778 197.606 59.4539L114.975 10.8513Z" fill="#11192B" stroke="url(#paint1_linear_9353_47728)" stroke-width="0.89575"/>
</mask>
<g mask="url(#mask0_9353_47728)">
<g filter="url(#filter3_f_9353_47728)">
<rect x="75.9666" y="76.4475" width="59.1063" height="21.3786" transform="rotate(180 75.9666 76.4475)" fill="#8874B2"/>
</g>
<g filter="url(#filter4_f_9353_47728)">
<rect x="188.489" y="110.638" width="59.1063" height="44.1826" transform="rotate(180 188.489 110.638)" fill="#8874B2"/>
</g>
</g>
</g>
<g filter="url(#filter5_dddii_9353_47728)">
<g clip-path="url(#clip1_9353_47728)">
<rect width="84.1477" height="80.9036" rx="3.46917" transform="matrix(0.87462 -0.48481 0.866025 0.5 41.6384 65.6062)" fill="#8405FF"/>
<g filter="url(#filter6_d_9353_47728)">
<path d="M108.834 64.3515L101.794 68.2541L92.1309 51.5207L103.285 57.9605L110.326 54.0579L119.989 70.7914L108.834 64.3515Z" fill="white"/>
</g>
<path d="M157.345 68.4328C156.742 68.767 156.084 68.989 155.37 69.099C154.657 69.2043 153.934 69.1923 153.203 69.063C152.475 68.9313 151.785 68.677 151.132 68.3C150.495 67.9323 150.045 67.5423 149.783 67.13C149.521 66.7131 149.469 66.3004 149.625 65.8918C149.786 65.4809 150.179 65.1016 150.807 64.754C151.426 64.4109 152.076 64.1979 152.757 64.115C153.438 64.0322 154.122 64.0655 154.809 64.215C155.492 64.3621 156.146 64.6161 156.771 64.9769L157.216 65.2336L152.877 67.6387C153.225 67.8445 153.595 67.9935 153.984 68.0858C154.374 68.178 154.762 68.2053 155.149 68.1677C155.532 68.1277 155.893 68.0136 156.233 67.8252C156.581 67.6323 156.806 67.4213 156.909 67.1922C157.012 66.9585 156.947 66.7267 156.716 66.4969L158.063 65.7501C158.423 66.0403 158.615 66.3483 158.641 66.6743C158.67 66.998 158.567 67.3137 158.33 67.6214C158.098 67.9269 157.77 68.1974 157.345 68.4328ZM151.964 67.1183L154.913 65.4835C154.612 65.31 154.287 65.1842 153.938 65.106C153.588 65.0232 153.236 65.0007 152.882 65.0387C152.523 65.0742 152.18 65.1829 151.852 65.3645C151.528 65.5439 151.333 65.7404 151.267 65.9539C151.201 66.1675 151.235 66.3773 151.37 66.5835C151.501 66.7874 151.699 66.9656 151.964 67.1183Z" fill="white"/>
<path d="M152.289 71.1538C151.791 71.4296 151.341 71.6068 150.937 71.6853C150.534 71.7592 150.16 71.7559 149.814 71.6755C149.469 71.595 149.13 71.4588 148.797 71.2668L145.18 69.1784L144.16 69.7435L143.127 69.1468L144.189 68.5582L142.714 67.2879L143.776 66.6993L145.615 67.7608L147.017 66.9838L148.056 67.584L146.655 68.361L150.224 70.4149C150.408 70.5213 150.565 70.5887 150.693 70.6171C150.822 70.641 150.947 70.6353 151.068 70.5999C151.189 70.56 151.328 70.4963 151.486 70.4088L152.263 69.9782L153.188 70.5125C153.135 70.5781 153.038 70.6638 152.896 70.7696C152.762 70.8755 152.56 71.0036 152.289 71.1538Z" fill="white"/>
<path d="M145.002 75.2748C144.694 75.4453 144.353 75.5847 143.977 75.693C143.602 75.7968 143.215 75.8617 142.816 75.8879C142.413 75.9117 142.017 75.8866 141.627 75.8126C141.237 75.7386 140.872 75.6033 140.531 75.4067L136.271 72.947L137.752 72.1263L141.844 74.4888C142.18 74.683 142.564 74.7832 142.995 74.7892C143.43 74.793 143.865 74.6738 144.302 74.4316C144.699 74.2119 144.914 73.9769 144.949 73.7266C144.979 73.474 144.8 73.2356 144.411 73.0112L140.367 70.6765L141.836 69.8624L148.049 73.4496L146.914 74.0786L145.537 73.4686C145.8 73.7078 145.933 73.9379 145.935 74.1589C145.937 74.3753 145.849 74.5784 145.67 74.7682C145.495 74.9557 145.273 75.1246 145.002 75.2748Z" fill="white"/>
<path d="M138.739 78.746C138.165 79.0645 137.529 79.2765 136.831 79.382C136.134 79.483 135.42 79.4665 134.688 79.3325C133.952 79.1963 133.246 78.9327 132.569 78.5419C131.924 78.1695 131.479 77.7772 131.233 77.3651C130.987 76.9484 130.948 76.5392 131.117 76.1375C131.285 75.7312 131.675 75.3588 132.286 75.0202C132.775 74.7488 133.302 74.5655 133.867 74.4702C134.431 74.3749 134.995 74.3639 135.558 74.4371C136.125 74.5081 136.647 74.6562 137.124 74.8813L135.868 75.5776C135.648 75.4868 135.398 75.4232 135.121 75.3866C134.839 75.3477 134.554 75.3497 134.263 75.3928C133.973 75.4312 133.697 75.5233 133.434 75.6691C132.96 75.9315 132.75 76.2428 132.803 76.6032C132.857 76.9636 133.24 77.3496 133.953 77.7613C134.61 78.1405 135.27 78.3661 135.934 78.438C136.601 78.5076 137.194 78.3989 137.712 78.1118C137.971 77.9683 138.137 77.8126 138.211 77.6447C138.281 77.4744 138.285 77.3116 138.222 77.1562C138.159 76.9962 138.055 76.8586 137.911 76.7434L139.137 76.064C139.521 76.327 139.764 76.6161 139.866 76.9313C139.968 77.2466 139.927 77.5617 139.743 77.8767C139.555 78.1894 139.221 78.4792 138.739 78.746Z" fill="white"/>
<path d="M131.933 82.5188C131.331 82.8529 130.672 83.0749 129.959 83.1849C129.245 83.2903 128.523 83.2783 127.791 83.1489C127.064 83.0173 126.373 82.763 125.72 82.386C125.083 82.0182 124.634 81.6282 124.372 81.2159C124.11 80.7991 124.057 80.3863 124.213 79.9777C124.374 79.5668 124.768 79.1876 125.395 78.84C126.014 78.4969 126.664 78.2839 127.345 78.201C128.026 78.1181 128.71 78.1514 129.398 78.3009C130.081 78.4481 130.735 78.7021 131.36 79.0629L131.804 79.3196L127.465 81.7247C127.814 81.9305 128.183 82.0795 128.573 82.1717C128.962 82.2639 129.351 82.2912 129.737 82.2536C130.12 82.2137 130.482 82.0995 130.821 81.9111C131.169 81.7183 131.395 81.5073 131.497 81.2781C131.6 81.0444 131.536 80.8126 131.304 80.5828L132.651 79.8361C133.011 80.1262 133.204 80.4343 133.229 80.7602C133.258 81.0839 133.155 81.3996 132.919 81.7074C132.687 82.0128 132.358 82.2833 131.933 82.5188ZM126.552 81.2042L129.501 79.5694C129.201 79.3959 128.876 79.2701 128.526 79.1919C128.177 79.1091 127.825 79.0867 127.47 79.1246C127.111 79.1602 126.768 79.2688 126.44 79.4504C126.117 79.6298 125.922 79.8263 125.856 80.0399C125.789 80.2534 125.824 80.4632 125.959 80.6694C126.09 80.8733 126.288 81.0516 126.552 81.2042Z" fill="white"/>
<path d="M121.773 88.0144L120.95 84.8125L115.761 84.3162L117.326 83.4484L120.717 83.765L120.227 81.8405L121.799 80.9693L122.552 83.9245L128.2 84.4521L126.634 85.32L122.772 84.9583L123.339 87.1465L121.773 88.0144Z" fill="white"/>
<path d="M114.994 91.7723L106.305 86.7559L112.107 83.5401L113.357 84.2685L109.048 86.6568L111.482 88.0618L115.286 85.9527L116.524 86.6674L112.707 88.7832L115.195 90.2194L119.613 87.7774L120.88 88.5094L114.994 91.7723Z" fill="white"/>
</g>
<rect x="0.435161" y="0.0037976" width="83.6477" height="80.4036" rx="3.21917" transform="matrix(0.87462 -0.48481 0.866025 0.5 41.6897 65.8191)" stroke="#E040F5" stroke-width="0.5"/>
</g>
<g filter="url(#filter7_d_9353_47728)">
<path d="M175.149 66.0392L189.642 81.479C189.83 81.6788 190.065 81.8283 190.326 81.9137C190.586 81.9991 190.864 82.0177 191.134 81.9679C191.404 81.9181 191.656 81.8014 191.869 81.6285C192.082 81.4556 192.248 81.2321 192.352 80.9784L191.271 71.0628L198.769 65.2565C198.871 65.0062 198.91 64.7346 198.881 64.4658C198.852 64.197 198.758 63.9395 198.605 63.7162C198.453 63.4929 198.248 63.3109 198.008 63.1863C197.768 63.0617 197.501 62.9985 197.231 63.0023L176.325 63.2873C176.008 63.2915 175.699 63.3876 175.436 63.564C175.172 63.7403 174.966 63.9894 174.842 64.2808C174.717 64.5722 174.68 64.8935 174.735 65.2056C174.789 65.5178 174.933 65.8074 175.149 66.0392Z" fill="white"/>
</g>
<defs>
<filter id="filter0_d_9353_47728" x="9.30032" y="20.4275" width="203.698" height="134.675" filterUnits="userSpaceOnUse" color-interpolation-filters="sRGB">
<feFlood flood-opacity="0" result="BackgroundImageFix"/>
<feColorMatrix in="SourceAlpha" type="matrix" values="0 0 0 0 0 0 0 0 0 0 0 0 0 0 0 0 0 0 127 0" result="hardAlpha"/>
<feOffset dy="9.85325"/>
<feGaussianBlur stdDeviation="5.3745"/>
<feComposite in2="hardAlpha" operator="out"/>
<feColorMatrix type="matrix" values="0 0 0 0 0 0 0 0 0 0 0 0 0 0 0 0 0 0 0.25 0"/>
<feBlend mode="normal" in2="BackgroundImageFix" result="effect1_dropShadow_9353_47728"/>
<feBlend mode="normal" in="SourceGraphic" in2="effect1_dropShadow_9353_47728" result="shape"/>
</filter>
<filter id="filter1_d_9353_47728" x="6.61307" y="0.717799" width="209.072" height="140.05" filterUnits="userSpaceOnUse" color-interpolation-filters="sRGB">
<feFlood flood-opacity="0" result="BackgroundImageFix"/>
<feColorMatrix in="SourceAlpha" type="matrix" values="0 0 0 0 0 0 0 0 0 0 0 0 0 0 0 0 0 0 127 0" result="hardAlpha"/>
<feOffset dy="1.7915"/>
<feGaussianBlur stdDeviation="6.71812"/>
<feComposite in2="hardAlpha" operator="out"/>
<feColorMatrix type="matrix" values="0 0 0 0 0 0 0 0 0 0 0 0 0 0 0 0 0 0 0.25 0"/>
<feBlend mode="normal" in2="BackgroundImageFix" result="effect1_dropShadow_9353_47728"/>
<feBlend mode="normal" in="SourceGraphic" in2="effect1_dropShadow_9353_47728" result="shape"/>
</filter>
<filter id="filter2_d_9353_47728" x="16.0184" y="6.98914" width="190.261" height="121.239" filterUnits="userSpaceOnUse" color-interpolation-filters="sRGB">
<feFlood flood-opacity="0" result="BackgroundImageFix"/>
<feColorMatrix in="SourceAlpha" type="matrix" values="0 0 0 0 0 0 0 0 0 0 0 0 0 0 0 0 0 0 127 0" result="hardAlpha"/>
<feOffset dy="1.7915"/>
<feGaussianBlur stdDeviation="2.01544"/>
<feComposite in2="hardAlpha" operator="out"/>
<feColorMatrix type="matrix" values="0 0 0 0 0.253904 0 0 0 0 0.093523 0 0 0 0 0.968327 0 0 0 0.25 0"/>
<feBlend mode="normal" in2="BackgroundImageFix" result="effect1_dropShadow_9353_47728"/>
<feBlend mode="normal" in="SourceGraphic" in2="effect1_dropShadow_9353_47728" result="shape"/>
</filter>
<filter id="filter3_f_9353_47728" x="-42.1293" y="-3.92078" width="177.085" height="139.358" filterUnits="userSpaceOnUse" color-interpolation-filters="sRGB">
<feFlood flood-opacity="0" result="BackgroundImageFix"/>
<feBlend mode="normal" in="SourceGraphic" in2="BackgroundImageFix" result="shape"/>
<feGaussianBlur stdDeviation="29.4948" result="effect1_foregroundBlur_9353_47728"/>
</filter>
<filter id="filter4_f_9353_47728" x="70.3934" y="7.46594" width="177.085" height="162.162" filterUnits="userSpaceOnUse" color-interpolation-filters="sRGB">
<feFlood flood-opacity="0" result="BackgroundImageFix"/>
<feBlend mode="normal" in="SourceGraphic" in2="BackgroundImageFix" result="shape"/>
<feGaussianBlur stdDeviation="29.4948" result="effect1_foregroundBlur_9353_47728"/>
</filter>
<filter id="filter5_dddii_9353_47728" x="37.6384" y="24.8105" width="151.662" height="89.2476" filterUnits="userSpaceOnUse" color-interpolation-filters="sRGB">
<feFlood flood-opacity="0" result="BackgroundImageFix"/>
<feColorMatrix in="SourceAlpha" type="matrix" values="0 0 0 0 0 0 0 0 0 0 0 0 0 0 0 0 0 0 127 0" result="hardAlpha"/>
<feOffset dy="4"/>
<feGaussianBlur stdDeviation="2"/>
<feComposite in2="hardAlpha" operator="out"/>
<feColorMatrix type="matrix" values="0 0 0 0 0 0 0 0 0 0 0 0 0 0 0 0 0 0 0.25 0"/>
<feBlend mode="normal" in2="BackgroundImageFix" result="effect1_dropShadow_9353_47728"/>
<feColorMatrix in="SourceAlpha" type="matrix" values="0 0 0 0 0 0 0 0 0 0 0 0 0 0 0 0 0 0 127 0" result="hardAlpha"/>
<feOffset dy="1"/>
<feComposite in2="hardAlpha" operator="out"/>
<feColorMatrix type="matrix" values="0 0 0 0 0.354158 0 0 0 0 0 0 0 0 0 0.722713 0 0 0 1 0"/>
<feBlend mode="normal" in2="effect1_dropShadow_9353_47728" result="effect2_dropShadow_9353_47728"/>
<feColorMatrix in="SourceAlpha" type="matrix" values="0 0 0 0 0 0 0 0 0 0 0 0 0 0 0 0 0 0 127 0" result="hardAlpha"/>
<feOffset dy="3"/>
<feComposite in2="hardAlpha" operator="out"/>
<feColorMatrix type="matrix" values="0 0 0 0 0.312309 0 0 0 0 0.0223097 0 0 0 0 0.615197 0 0 0 1 0"/>
<feBlend mode="normal" in2="effect2_dropShadow_9353_47728" result="effect3_dropShadow_9353_47728"/>
<feBlend mode="normal" in="SourceGraphic" in2="effect3_dropShadow_9353_47728" result="shape"/>
<feColorMatrix in="SourceAlpha" type="matrix" values="0 0 0 0 0 0 0 0 0 0 0 0 0 0 0 0 0 0 127 0" result="hardAlpha"/>
<feOffset/>
<feGaussianBlur stdDeviation="6.675"/>
<feComposite in2="hardAlpha" operator="arithmetic" k2="-1" k3="1"/>
<feColorMatrix type="matrix" values="0 0 0 0 0.0235045 0 0 0 0 0.0724697 0 0 0 0 0.118555 0 0 0 0.5 0"/>
<feBlend mode="soft-light" in2="shape" result="effect4_innerShadow_9353_47728"/>
<feColorMatrix in="SourceAlpha" type="matrix" values="0 0 0 0 0 0 0 0 0 0 0 0 0 0 0 0 0 0 127 0" result="hardAlpha"/>
<feOffset dx="2.51111"/>
<feGaussianBlur stdDeviation="0.837037"/>
<feComposite in2="hardAlpha" operator="arithmetic" k2="-1" k3="1"/>
<feColorMatrix type="matrix" values="0 0 0 0 1 0 0 0 0 1 0 0 0 0 1 0 0 0 1 0"/>
<feBlend mode="soft-light" in2="effect4_innerShadow_9353_47728" result="effect5_innerShadow_9353_47728"/>
</filter>
<filter id="filter6_d_9353_47728" x="68.4312" y="42.1301" width="75.2571" height="46.0522" filterUnits="userSpaceOnUse" color-interpolation-filters="sRGB">
<feFlood flood-opacity="0" result="BackgroundImageFix"/>
<feColorMatrix in="SourceAlpha" type="matrix" values="0 0 0 0 0 0 0 0 0 0 0 0 0 0 0 0 0 0 127 0" result="hardAlpha"/>
<feOffset dy="4"/>
<feGaussianBlur stdDeviation="2"/>
<feComposite in2="hardAlpha" operator="out"/>
<feColorMatrix type="matrix" values="0 0 0 0 0 0 0 0 0 0 0 0 0 0 0 0 0 0 0.25 0"/>
<feBlend mode="normal" in2="BackgroundImageFix" result="effect1_dropShadow_9353_47728"/>
<feBlend mode="normal" in="SourceGraphic" in2="effect1_dropShadow_9353_47728" result="shape"/>
</filter>
<filter id="filter7_d_9353_47728" x="166.136" y="57.858" width="41.3274" height="36.1401" filterUnits="userSpaceOnUse" color-interpolation-filters="sRGB">
<feFlood flood-opacity="0" result="BackgroundImageFix"/>
<feColorMatrix in="SourceAlpha" type="matrix" values="0 0 0 0 0 0 0 0 0 0 0 0 0 0 0 0 0 0 127 0" result="hardAlpha"/>
<feOffset dy="3.42944"/>
<feGaussianBlur stdDeviation="4.2868"/>
<feComposite in2="hardAlpha" operator="out"/>
<feColorMatrix type="matrix" values="0 0 0 0 0.0969792 0 0 0 0 0.127894 0 0 0 0 0.2375 0 0 0 1 0"/>
<feBlend mode="normal" in2="BackgroundImageFix" result="effect1_dropShadow_9353_47728"/>
<feBlend mode="normal" in="SourceGraphic" in2="effect1_dropShadow_9353_47728" result="shape"/>
</filter>
<linearGradient id="paint0_linear_9353_47728" x1="148.115" y1="48.1606" x2="104.784" y2="114.095" gradientUnits="userSpaceOnUse">
<stop stop-color="#F9C1FF"/>
<stop offset="1" stop-color="#A950FF"/>
</linearGradient>
<linearGradient id="paint1_linear_9353_47728" x1="148.115" y1="48.1608" x2="104.784" y2="114.095" gradientUnits="userSpaceOnUse">
<stop stop-color="#F9C1FF"/>
<stop offset="1" stop-color="#A950FF"/>
</linearGradient>
<clipPath id="clip0_9353_47728">
<rect width="200" height="115.972" fill="white" transform="matrix(-1 0 0 1 211.229 7.77783)"/>
</clipPath>
<clipPath id="clip1_9353_47728">
<rect width="84.1477" height="80.9036" rx="3.46917" transform="matrix(0.87462 -0.48481 0.866025 0.5 41.6384 65.6062)" fill="white"/>
</clipPath>
</defs>
</svg>
