<svg xmlns="http://www.w3.org/2000/svg" viewBox="0 0 410 404"><path fill="#41D1FF" d="M399.641 59.524 215.643 388.545c-3.358 5.913-11.894 5.934-15.297.04L10.31 59.543c-3.73-6.44 1.76-14.186 9.119-12.84l184.652 33.78a8.2 8.2 0 0 0 2.955 0l183.69-33.75c7.35-1.35 12.85 6.38 9.12 12.79Z"/><path fill="#BD34FE" d="M292.965.012 156.412 26.748a4.1 4.1 0 0 0-3.237 3.334l-8.39 141.96a4.1 4.1 0 0 0 4.726 4.275l38.01-5.236a4.1 4.1 0 0 1 4.662 5.272l-11.29 39.133a4.1 4.1 0 0 0 5.066 5.084l23.48-7.176a4.1 4.1 0 0 1 5.166 4.91l-17.94 87.059c-1.12 5.43 6.1 8.39 9.05 3.71l1.97-3.12 111.29-222.07c1.86-3.71-1.35-7.86-5.46-7.13l-39.13 6.99a4.1 4.1 0 0 1-4.71-4.7l25.55-125.01a4.1 4.1 0 0 0-4.77-4.88Z"/><path fill="#FFEA83" d="M7.73 65.603 1.1 78.132a8.2 8.2 0 0 0 .31 8.67l197.89 311.82c2.95 4.65 9.73 4.63 12.64-.03l40.67-65.3a8.2 8.2 0 0 0 .24-8.08L46.56 66.5a8.2 8.2 0 0 0-8.83-3.85l-24.3 4.45a8.2 8.2 0 0 0-5.7 4.5Z"/></svg>